<?xml version="1.0" encoding="utf-8" ?>
<svg xmlns="http://www.w3.org/2000/svg" xmlns:xlink="http://www.w3.org/1999/xlink" viewBox="0 0 1024 1025">
	<path fill="#005AC7" transform="scale(1.6 1.60156)" d="M482.673 76.3765C524.717 72.977 556.489 113.727 540.075 154.226C528.225 183.465 499.796 192.621 470.919 190.163C465.3 189.685 458.052 185.745 455.213 190.165L451.489 196.207C447.06 202.784 440.45 207.711 433.204 210.776L427.188 212.742C422.636 214.124 417.39 214.022 412.667 213.78C369.874 211.588 357.2 151.827 397.478 134.531C403.671 131.872 399.968 131.445 403.248 124.336C409.559 110.658 425.627 100.969 440.581 102.14L445.978 95.2536C455.073 83.968 468.485 77.8277 482.673 76.3765ZM486.725 107.299C470.673 108.962 470.981 114.986 466.643 126.476C462.581 137.234 450.529 136.042 441.788 133.252C439.325 132.466 433.952 135.18 433.318 137.733C433.022 138.923 434.005 142.126 434.188 143.572C435.015 150.141 431.246 156.978 426.506 161.255C422.139 165.196 414.154 161.088 409.637 164.236C395.885 173.82 415.696 189.061 426.8 175.702L427.01 175.358C428.759 172.437 429.134 169.448 430.319 166.349C433.488 158.064 449.396 153.603 457.856 154.745C469.676 156.34 472.334 160.057 486.094 158.55L486.678 158.489C523.153 154.478 518.57 104.895 486.725 107.299Z"/>
	<path fill="#FD4E00" transform="scale(1.6 1.60156)" d="M256.393 186.246L260.157 186.015C275.327 185.782 278.678 195.322 278.686 208.512L278.774 302.872C278.809 305.236 277.903 310.676 280.005 310.688L515.389 310.708C530.943 310.715 544.11 308.741 544.25 328.668L544.272 491.544C544.278 497.836 544.85 504.755 544.129 510.97C542.24 527.243 528.143 525.238 516.756 525.239L366.022 525.223L106.048 525.211C79.516 525.146 83.1144 517.176 80.1613 493.404C77.9273 475.421 76.2292 478.584 83.6297 461.766L89.7195 446.004C104.496 404.663 112.423 361.694 115.549 317.974L115.899 309.577C116.241 304.405 117.083 299.367 117.154 294.167L117.229 211.06C117.235 201.443 116.654 188.522 129.882 186.554C134.047 185.935 138.717 186.297 142.946 186.288L256.393 186.246ZM303.655 439.929C304.165 442.354 304.631 444.83 305.412 447.186L307.35 452.229C307.593 452.82 308.167 453.795 308.238 454.407C311.166 464.847 317.705 466.82 316.936 479.28C316.642 484.054 316.594 489.656 315.147 494.21L515.032 494.998L514.567 339.957C509.07 341.158 502.345 340.48 496.684 340.487L301.232 340.477C295.065 340.471 288.437 339.977 282.337 340.571C285.109 371.744 294.506 410.395 303.655 439.929ZM155.49 270.62L147.662 270.661L147.563 290.63C147.452 293.413 146.846 296.196 146.726 299.012L143.175 346.88C138.739 384.527 130.021 421.76 117.91 457.665L113.221 470.081C110.963 475.583 109.107 478.767 109.974 484.744L111.489 493.229C111.598 493.765 111.705 494.218 111.951 494.712L240.469 494.707L283.975 494.716C286.271 483.498 286.676 480.125 282.171 469.404L278.113 458.75C273.568 446.353 269.534 433.357 266.373 420.543L257.955 383.414L251.659 334.862C251.54 333.489 251.135 332.193 251.02 330.824L249.117 289.219C249 287.842 248.689 286.501 248.625 285.114L248.52 270.76L155.49 270.62ZM148.607 215.781L147.748 239.706L247.715 240.333L248.497 216.123L148.607 215.781Z"/>
	<path fill="#005AC7" transform="scale(1.6 1.60156)" d="M303.655 439.929C307.968 424.489 335.339 428.844 347.764 428.858C358.521 428.871 369.505 428.381 380.229 429.003C400.288 430.167 400.98 457.963 381.188 459.146C370.244 459.8 358.939 459.278 347.961 459.292L317.856 459.3C313.527 459.296 311.469 458.639 308.767 455.1L308.238 454.407C308.167 453.795 307.593 452.82 307.35 452.229L305.412 447.186C304.631 444.83 304.165 442.354 303.655 439.929Z"/>
	<path fill="#005AC7" transform="scale(1.6 1.60156)" d="M423.631 428.891L481.847 428.892C487.433 428.906 493.467 428.506 498.029 432.38C503.789 437.27 504.763 448.87 499.696 454.528C495.997 458.657 491.695 459.051 486.544 459.365L425.267 459.279C416.228 459.27 407.576 457.363 406.858 445.781C406.14 434.219 412.733 429.447 423.631 428.891Z"/>
	<path fill="#005AC7" transform="scale(1.6 1.60156)" d="M423.116 368.574L482.344 368.768C485.534 368.773 488.792 368.619 491.953 369.103C499.984 370.332 504.842 379.075 503.578 386.713L503.494 387.188C501.952 396.207 495.434 398.476 487.542 399.182C483.878 399.724 479.779 399.391 476.065 399.395L430.238 399.392C426.626 399.387 422.567 399.741 419.012 399.231C410.318 397.985 405.408 388.585 407.36 380.409L407.467 380C409.43 372.161 415.712 368.943 423.116 368.574Z"/>
	<path fill="#005AC7" transform="scale(1.6 1.60156)" d="M316.304 368.566L373.682 368.764C383.277 368.779 395.562 369.582 396.325 382.376C396.977 393.313 390.94 398.988 380.391 399.38L322.207 399.455C314.041 399.472 306.797 399.43 302.115 391.447C300.253 388.272 298.838 383.372 299.857 379.737L300.691 377.344C303.557 371.201 310.03 368.908 316.304 368.566Z"/>
</svg>
