<svg viewBox="0 0 114 114" fill="none" xmlns="http://www.w3.org/2000/svg">
<path d="M4.67578 72.5859V20.5162C4.67578 17.5945 7.06734 15.1406 9.98903 15.1406H38.0453C40.1131 15.1406 41.9914 16.3882 42.8538 18.2676L45.6835 24.4804C46.5458 26.3598 48.4242 27.6094 50.492 27.6094H98.9622C101.884 27.6094 104.203 29.9308 104.203 32.8527V81.0273C104.203 83.949 101.884 86.3906 98.9622 86.3906H9.98903C9.8492 86.3906 9.71115 86.3105 9.57422 86.2998V96.4102H9.49807C9.49807 97.7461 8.41218 98.7783 7.08693 98.7783C5.76168 98.7783 4.67578 97.6724 4.67578 96.3472V72.5859Z" fill="#BCBCBC"/>
<path d="M7.08692 98.7783C8.41217 98.7783 9.49806 97.7461 9.49806 96.4102H9.57421V46.7981C9.57421 43.8762 11.8763 41.4141 14.798 41.4141H103.771C106.693 41.4141 109.102 43.8762 109.102 46.7981V100.055C109.102 102.977 106.693 105.316 103.771 105.316H14.798C14.4896 105.316 14.1876 105.303 13.8937 105.252C13.5288 105.303 13.1568 105.338 12.7778 105.338C8.31576 105.338 4.73189 101.725 4.73189 97.2625C4.73189 97.1436 4.7399 97.0269 4.7448 96.9093C5.00018 97.9705 5.95493 98.7783 7.08692 98.7783Z" fill="#E4DFDB"/>
</svg>
