<svg viewBox="0 0 102 102" fill="none" xmlns="http://www.w3.org/2000/svg">
<g clip-path="url(#clip0_258_491)">
<path fill-rule="evenodd" clip-rule="evenodd" d="M11.4604 11.4604C11.6299 11.2914 11.831 11.1574 12.0523 11.0662C12.2736 10.9749 12.5106 10.9281 12.75 10.9286H23.6786C25.1278 10.9286 26.5177 10.3529 27.5424 9.32812C28.5672 8.30337 29.1429 6.9135 29.1429 5.46429C29.1429 4.01507 28.5672 2.6252 27.5424 1.60045C26.5177 0.5757 25.1278 0 23.6786 0L12.75 0C9.36849 0 6.12548 1.3433 3.73439 3.73439C1.3433 6.12548 0 9.36849 0 12.75L0 23.6786C0 25.1278 0.5757 26.5177 1.60045 27.5424C2.6252 28.5672 4.01507 29.1429 5.46429 29.1429C6.9135 29.1429 8.30337 28.5672 9.32812 27.5424C10.3529 26.5177 10.9286 25.1278 10.9286 23.6786V12.75C10.9281 12.5106 10.9749 12.2736 11.0662 12.0523C11.1574 11.831 11.2914 11.6299 11.4604 11.4604ZM102 78.3214C102 76.8722 101.424 75.4823 100.4 74.4576C99.3748 73.4328 97.9849 72.8571 96.5357 72.8571C95.0865 72.8571 93.6966 73.4328 92.6719 74.4576C91.6471 75.4823 91.0714 76.8722 91.0714 78.3214V89.25C91.0714 89.7331 90.8795 90.1964 90.5379 90.5379C90.1964 90.8795 89.7331 91.0714 89.25 91.0714H78.3214C76.8722 91.0714 75.4823 91.6471 74.4576 92.6719C73.4328 93.6966 72.8571 95.0865 72.8571 96.5357C72.8571 97.9849 73.4328 99.3748 74.4576 100.4C75.4823 101.424 76.8722 102 78.3214 102H89.25C92.6315 102 95.8745 100.657 98.2656 98.2656C100.657 95.8745 102 92.6315 102 89.25V78.3214ZM5.46429 72.8571C6.9135 72.8571 8.30337 73.4328 9.32812 74.4576C10.3529 75.4823 10.9286 76.8722 10.9286 78.3214V89.25C10.9286 89.7331 11.1205 90.1964 11.4621 90.5379C11.8036 90.8795 12.2669 91.0714 12.75 91.0714H23.6786C25.1278 91.0714 26.5177 91.6471 27.5424 92.6719C28.5672 93.6966 29.1429 95.0865 29.1429 96.5357C29.1429 97.9849 28.5672 99.3748 27.5424 100.4C26.5177 101.424 25.1278 102 23.6786 102H12.75C9.36849 102 6.12548 100.657 3.73439 98.2656C1.3433 95.8745 0 92.6315 0 89.25L0 78.3214C0 76.8722 0.5757 75.4823 1.60045 74.4576C2.6252 73.4328 4.01507 72.8571 5.46429 72.8571ZM78.3214 0C76.8722 0 75.4823 0.5757 74.4576 1.60045C73.4328 2.6252 72.8571 4.01507 72.8571 5.46429C72.8571 6.9135 73.4328 8.30337 74.4576 9.32812C75.4823 10.3529 76.8722 10.9286 78.3214 10.9286H89.25C89.7331 10.9286 90.1964 11.1205 90.5379 11.4621C90.8795 11.8036 91.0714 12.2669 91.0714 12.75V23.6786C91.0714 25.1278 91.6471 26.5177 92.6719 27.5424C93.6966 28.5672 95.0865 29.1429 96.5357 29.1429C97.9849 29.1429 99.3748 28.5672 100.4 27.5424C101.424 26.5177 102 25.1278 102 23.6786V12.75C102 9.36849 100.657 6.12548 98.2656 3.73439C95.8745 1.3433 92.6315 0 89.25 0H78.3214ZM51 56.6537C44.4279 56.6534 38.0129 58.6625 32.6151 62.4116C27.2173 66.1607 23.0949 71.4707 20.8007 77.6293C19.9847 79.8077 21.726 81.9643 24.0501 81.9643H77.9353C80.2667 81.9643 82.0007 79.8077 81.192 77.6293C78.8978 71.4707 74.7754 66.1607 69.3776 62.4116C63.9798 58.6625 57.5721 56.6534 51 56.6537ZM67.0869 32.5016C67.0869 36.7729 65.3901 40.8693 62.3698 43.8896C59.3495 46.9099 55.2531 48.6066 50.9818 48.6066C46.7105 48.6066 42.6141 46.9099 39.5938 43.8896C36.5735 40.8693 34.8767 36.7729 34.8767 32.5016C34.8767 28.2302 36.5735 24.1339 39.5938 21.1136C42.6141 18.0933 46.7105 16.3965 50.9818 16.3965C55.2531 16.3965 59.3495 18.0933 62.3698 21.1136C65.3901 24.1339 67.0869 28.2302 67.0869 32.5016Z" fill="#E4DFDB"/>
</g>
<defs>
<clipPath id="clip0_258_491">
<rect width="102" height="102" fill="white"/>
</clipPath>
</defs>
</svg>
