<?xml version="1.0" encoding="utf-8" ?>
<svg xmlns="http://www.w3.org/2000/svg" xmlns:xlink="http://www.w3.org/1999/xlink" viewBox="0 0 1024 1025" >
	<path fill="#005AC7" transform="scale(1.6 1.60156)" d="M288.862 87.9917L494.536 87.9921C512.119 87.9849 530.277 83.274 538.122 103.906C540.264 109.539 539.436 115.607 539.439 121.5L539.437 454.673C539.433 463.233 539.892 472.061 539.318 480.587C538.769 488.761 530.617 498.225 522.488 499.366L522.031 499.422C518.321 499.94 514.486 499.728 510.744 499.715L493.478 499.672C491.132 499.675 481.099 498.776 480.956 501.022C480.349 510.605 480.828 520.473 480.822 530.087C480.814 543.528 479.307 555.987 462.524 559.064C458.818 559.743 454.459 559.265 450.666 559.237L349.297 559.242L184.166 559.264C169.736 558.758 165.259 544.855 165.241 532.871L165.391 499.607L134.497 499.648C128.51 499.655 121.59 500.406 115.781 499.012C106.845 496.867 99.842 489.13 99.4064 479.816L99.3571 166.4C99.3547 163.119 98.8688 158.891 99.7572 155.762C104.814 137.949 114.913 137.833 129.568 137.821L158.647 137.841L158.653 116.843C158.661 113.616 158.294 109.905 158.861 106.761C161.944 89.659 174.627 88.0175 188.427 88.004L288.862 87.9917Z"/>
	<path fill="#FD4E00" transform="scale(1.6 1.60156)" d="M525.381 474.418L525.549 476.269C525.78 487.53 516.545 485.353 508.327 485.336L480.146 485.335L480.877 198.589C480.871 195.118 481.089 191.464 480.635 188.018C478.794 174.051 469.085 170.569 457.292 170.533L261.986 170.577C260.674 169.878 254.379 159.986 251.922 157.28L243.571 148.54C240.731 145.257 238.223 139.286 233.494 138.443C226.27 137.155 218.122 137.846 210.764 137.855L172.935 138.043L173.088 116.958C173.106 110.154 171.682 102.875 180.938 102.215C185.585 101.883 190.29 102.004 194.946 101.997L500.463 101.934L512.667 101.921C528.043 101.955 525.51 108.32 525.428 119.844L525.381 474.418Z"/>
	<path fill="#EAE5E2" transform="scale(1.6 1.60156)" d="M113.441 474.891L113.608 170.601C113.55 151.461 112.625 152.049 133.864 152.033L226.702 152.061C229.553 152.145 229.515 153.302 231.118 155.153L250.283 178.361C257.305 186.588 261.066 184.063 271.672 184.075L444.871 184.036C465.515 184.006 466.092 180.248 466.034 203.21L466.018 521.8C466.044 527.382 467.142 533.522 466.441 539.024C465.131 549.303 447.738 545.163 441.157 545.022L329.198 545.066L299.815 544.983C296.075 545.483 291.905 545.045 288.118 545.018L188.895 544.954C181.549 544.844 179.785 543.108 179.493 535.81L179.356 357.092C179.356 355.914 178.764 349.425 179.877 349.425L255.674 349.466C273.708 349.523 269.663 345.212 269.647 330.056L269.636 266.301C269.636 260.789 270.05 254.967 269.49 249.504C268.74 242.177 261.161 240.922 255.541 245.456C252.757 247.701 250.18 250.481 247.636 253.006L167.996 332.473C163.778 336.696 165.105 337.216 165.132 342.907L165.244 470.513L165.575 485.292L124.357 485.32C115.927 485.312 113.392 483.526 113.441 474.891Z"/>
	<path fill="white" transform="scale(1.6 1.60156)" d="M296.328 529.64L329.043 531.468C330.771 533.255 332.57 541.958 332.562 544.111L332.552 544.688C331.53 545.194 330.298 544.942 329.198 545.262L299.815 544.983C298.382 545.004 297.186 545.089 296.295 544.668L296.328 529.64Z"/>
	<path fill="#005AC7" transform="scale(1.6 1.60156)" d="M325.027 238.88C327.308 238.596 329.749 238.747 332.047 238.737L414.031 238.732C418.705 238.734 423.531 237.641 424.407 244.79C425.237 251.554 420.589 252.838 415.391 252.807L332.162 252.79C328.719 252.79 325.149 252.976 321.721 252.76C314.441 252.302 309.909 240.109 325.027 238.88Z"/>
	<path fill="#005AC7" transform="scale(1.6 1.60156)" d="M321.255 268.151L408.738 268.131C412.62 268.134 416.633 267.89 420.48 268.409C426.022 272.882 426.718 279.204 419.523 282.242C409.513 282.3 322.004 282.906 319.58 281.757C312.698 278.492 315.143 271.437 321.255 268.151Z"/>
	<path fill="#005AC7" transform="scale(1.6 1.60156)" d="M403.261 297.515C409.931 297.423 424.679 294.555 425.201 305C425.599 312.969 415.528 311.856 410.765 311.856L337.423 311.846L325.885 311.862C324.122 311.86 321.897 312.068 320.192 311.616C314.49 310.108 312.923 301.995 320.517 298.472L320.947 298.281C325.718 296.108 344.522 297.521 350.701 297.519L403.261 297.515Z"/>
	<path fill="#005AC7" transform="scale(1.6 1.60156)" d="M248.414 208.847L397.743 208.889C404.542 208.892 411.502 208.594 418.281 208.997C427.21 209.526 427.506 221.697 417.762 223.367L249.062 223.108C238.374 222.728 238.041 210.706 248.414 208.847Z"/>
	<path fill="#005AC7" transform="scale(1.6 1.60156)" d="M296.528 529.65C296.329 526.847 297.129 520.492 295.518 518.496C286.014 514.6 278.114 528.32 272.769 526.031C268.301 524.118 252.916 510.062 251.896 506.875C250.133 501.367 257.455 494.412 259.635 489.783C253.878 469.701 239.758 482.409 236.443 471.399C235.555 468.452 236.532 463.748 236.592 460.625L236.642 449.419C236.73 431.128 253.844 451.1 258.826 426.625C256.712 421.617 249.602 414.874 251.645 409.24C252.579 406.665 256.204 404.349 258.129 402.427C261.3 399.263 272.197 385.781 277.43 388.223C280.851 389.82 283.7 394.823 287.537 395.423C293.029 396.281 297.221 392.79 297.761 387.304C299.411 370.538 299.763 371.506 314.987 371.459C321.23 371.44 327.901 370.973 334.091 371.666C338.216 374.815 337.178 387.744 339.264 392.744C353.305 401.099 358.326 383.905 365.482 388.019C367.01 388.898 368.466 390.707 369.716 391.969L377.475 399.726C384.195 406.323 389.416 408.41 382.574 417.551C381.55 418.919 378.253 422.572 378.479 424.15C378.997 427.77 381.195 435.689 384.062 438.39C385.782 438.919 387.596 438.803 389.38 438.881C401.942 439.427 401.232 445.072 401.255 454.968L401.248 465.272C401.145 486.755 382.63 468.351 377.51 488.416C379.622 493.523 387.79 500.857 385.204 506.695C383.494 510.556 379.281 513.908 376.21 516.71C353.004 537.88 359.096 514.345 344.099 517.936C336.395 519.781 338.005 524.18 339.439 530.831C335.992 531.59 332.638 531.577 329.13 531.545L329.043 531.289L296.528 529.65Z"/>
	<path fill="#EAE5E2" transform="scale(1.6 1.60156)" d="M321.921 385.815C322.871 385.723 323.781 385.492 324.61 385.982C324.876 390.835 325.32 395.829 326.363 400.574C329.938 404.442 345.747 409.624 351.337 411.614C354.86 409.732 357.53 406.814 360.632 404.367L366.85 409.017C367.719 409.709 368.894 410.455 369.522 411.364C359.291 426.578 360.991 421.581 367.491 437.869L370.333 445.636C373.421 454.562 377.492 452.729 386.243 452.883L386.245 463.151C382.507 463.337 378.364 463.246 374.746 464.216L374.375 464.319C369.886 465.505 369.087 472.089 367.459 475.797L363.78 483.818C360.104 491.843 364.296 495.899 369.547 502.274C359.37 512.535 359.75 507.779 350.591 499.198C347.505 500.058 344.591 501.747 341.594 502.911L333.176 505.766C324.54 508.566 325.635 510.333 324.544 519.077C323.102 519.448 319.918 518.55 318.341 518.31L312.178 516.631C310.47 516.079 310.627 516.464 310.523 514.762C309.96 505.497 306.694 507.463 298.184 504.403C282.531 498.776 287.887 500.843 273.575 510.143C264.148 501.944 272.502 499.904 276.056 491.364C275.093 487.525 267.029 469.904 264.771 466.72C261.493 462.099 253.652 466.199 251.036 462.344C250.059 444.422 261.57 457.69 265.862 449.163C267.95 445.017 268.485 440.22 270.247 435.938C271.404 433.122 276.277 426.603 276.197 423.958C276.107 420.938 259.742 411.094 276.447 405.148C280.738 406.187 284.054 409.139 287.605 411.621C292.898 410.553 302.847 405.725 307.517 402.901C310.206 401.276 309.24 400.387 309.595 397.319C310.025 393.603 310.831 389.908 311.74 386.283L321.921 385.815Z"/>
	<path fill="#005AC7" transform="scale(1.6 1.60156)" d="M315.199 419.178C363.579 415.663 369.956 486.155 322.263 492.05L321.884 492.112C289.804 496.067 269.767 458.503 289.643 433.436C295.997 425.421 305.115 420.427 315.199 419.178Z"/>
	<path fill="#EAE5E2" transform="scale(1.6 1.60156)" d="M316.446 433.806C344.589 431.333 352.321 473.234 321.017 478.002C292.007 480.517 286.059 440.076 316.446 433.806Z"/>
</svg>
