<?xml version="1.0" encoding="utf-8" ?>
<svg xmlns="http://www.w3.org/2000/svg" xmlns:xlink="http://www.w3.org/1999/xlink" viewBox="0 0 1024 1025">
	<path fill="#FD4E00" transform="scale(1.6 1.6)" d="M139.869 127.31L155.469 127.188C169.46 127.157 167.751 130.709 167.776 142.322L167.751 166.524C167.737 170.109 167.328 174.176 167.793 177.715L474.302 177.915C473.891 171.352 474.137 164.634 474.121 158.052C474.089 144.818 470.517 139.097 486.111 139.049L540.469 139.114C541.461 139.155 542.497 139.234 543.316 139.85L544.247 140.619C549.056 145.124 546.87 167.205 546.87 174.186L546.86 499.971C546.868 507.08 547.993 513.473 538.937 513.62L537.326 513.635C533.665 513.462 529.816 513.709 526.127 513.713L147.223 513.742C127.853 513.733 110.208 506.493 98.835 490.127C89.1976 476.259 90.0665 460.444 90.0692 444.482L90.0513 188.61C89.9794 172.443 91.4554 158.873 102.62 145.813C112.01 134.83 125.62 128.449 139.869 127.31ZM488.633 153.153L488.747 168.322C488.761 171.459 488.589 174.73 489 177.836C492.775 177.825 507.565 177.103 509.844 178.989L510.134 179.227C511.719 180.62 512.308 182.869 512.38 184.894L512.388 212.847C512.424 235.161 516.466 228.921 499.349 243.611C494.348 247.903 489.505 252.724 484.076 256.468C480.767 258.749 479.57 257.998 476.453 255.796C470.494 251.586 464.96 246.464 459.315 241.827L452.934 236.651C447.309 232.049 448.733 230.055 448.731 223.007L448.744 198.593C448.745 197.333 449.136 193.668 448.564 192.684L167.786 192.079L167.803 399.537C167.812 401.944 167.998 404.505 167.565 406.875L167.477 407.381C165.37 418.578 146.214 413.46 136.743 414.556C116.922 416.851 105.163 434.578 104.263 453.359C104.388 457.297 104.206 461.494 104.718 465.392C107.125 483.719 121.264 496.956 139.447 498.982C145.409 499.646 151.791 499.264 157.796 499.264L506.788 499.281C515.084 499.283 523.645 499.742 531.9 499.277L532.514 163.411C532.505 160.053 532.782 156.444 532.373 153.13L488.633 153.153ZM145.959 141.349C121.559 142.134 104.721 155.949 104.66 181.92L104.624 415.135C105.67 413.718 107.561 412.749 108.93 411.615C121.97 401.69 137.092 398.578 153.274 400.214L153.331 141.289L145.959 141.349ZM463.212 192.656C462.332 200.244 462.737 220.079 463.386 227.629C469.686 232.035 473.788 235.622 479.681 240.617L490.407 232.452L495.668 227.828C496.565 227.077 497.76 226.339 498.222 225.235L498.161 224.83C497.292 218.454 497.241 199.477 497.792 192.643L463.212 192.656Z"/>
	<path fill="#005AC7" transform="scale(1.6 1.6)" d="M312.112 448.221L342.427 448.145L342.435 463.775L323.648 463.741C319.926 463.738 315.909 464.012 312.242 463.417L312.112 448.221Z"/>
	<path fill="#005AC7" transform="scale(1.6 1.6)" d="M436.644 330.346L480.029 330.428C492.518 330.6 491.216 342.624 483.622 345.388C480.618 345.857 477.469 345.67 474.439 345.674L443.851 345.632C441.722 345.618 438.669 345.918 436.664 345.273C430.398 343.257 427.391 334.217 436.644 330.346Z"/>
	<path fill="#005AC7" transform="scale(1.6 1.6)" d="M457.1 303.264L474.597 303.24C477.277 303.23 480.556 302.834 483.152 303.364C490.058 304.777 490.564 313.495 486.241 317.86C484.174 319.947 480.458 319.038 477.786 319.035L461.094 318.997L443.216 318.974C438.17 318.949 429.267 319.826 429.011 311.941C428.726 303.177 436.513 303.355 442.372 303.319L457.1 303.264Z"/>
	<path fill="#005AC7" transform="scale(1.6 1.6)" d="M435.944 357.636L468.53 357.558C473.323 357.556 478.882 356.981 483.564 357.729C490.079 358.769 494.209 372.687 478.746 373.104L447.972 372.949C442.109 372.947 435.869 373.42 430.058 372.842C425.082 372.348 418.915 358.545 435.944 357.636Z"/>
	<path fill="#005AC7" transform="scale(1.6 1.6)" d="M431.748 384.497L475.347 384.318C480.636 384.332 488.265 383.583 489.348 390.781C490.198 396.434 486.732 399.622 481.513 399.982L447.089 399.962C441.353 399.96 435.473 400.252 429.758 399.92C420.242 399.367 422.133 385.746 431.748 384.497Z"/>
	<path fill="#005AC7" transform="scale(1.6 1.6)" d="M422.596 276.936L478.61 276.869C480.281 276.868 482.384 276.633 483.995 277.065C486.593 277.762 490.852 282.263 489.992 285.294L489.798 286.023C488.903 289.755 486.851 291.313 483.392 292.196L443.6 292.217C436.955 292.226 429.743 292.823 423.173 291.963C414.589 290.841 414.524 278.986 422.596 276.936Z"/>
	<path fill="#005AC7" transform="scale(1.6 1.6)" d="M456.302 421.133C458.125 420.951 471.451 420.622 472.254 421.225L472.275 437.417C472.265 440.829 472.371 444.32 471.96 447.711L487.473 448.099C487.963 448.642 487.709 451.811 487.71 452.681L487.726 463.48C483.962 464.402 369.572 463.716 368.597 463.338L368.541 461.968L368.431 440.832L383.997 440.774L384.324 447.931L410.613 448.188L410.619 422.044C411.98 421.345 423.531 421.851 425.97 421.856L425.962 448.172L456.399 448.184L456.302 421.133Z"/>
	<path fill="#005AC7" transform="scale(1.6 1.6)" d="M202.029 355.117L238.414 355.171C254.216 355.163 258.982 350.768 259.037 368.29L258.974 437.504L276.392 437.488C279.452 437.492 283.009 437.171 285.985 437.795L286.026 452.605L248.594 452.479L163.765 452.488L163.878 437.493L195.203 437.523L195.277 367.656C195.229 361.453 194.206 355.865 202.029 355.117ZM210.203 370.469C209.573 373.742 210.018 377.879 210.01 381.242L209.938 405.479L244.04 405.287L244.396 370.662L210.203 370.469ZM238.84 420.899L210.001 420.929C209.37 426.25 210.349 431.747 209.491 437.1C211.833 437.175 214.326 437.121 216.641 437.469L244.358 437.27L244.444 426.454C244.458 424.667 244.714 422.531 244.375 420.786L238.84 420.899Z"/>
	<path fill="#005AC7" transform="scale(1.6 1.6)" d="M289.38 211.64L308.979 211.801C320.32 211.838 325.293 209.876 325.311 223.24L325.297 231.555L340.224 231.555C350.128 231.566 354.246 231.969 354.301 242.378L354.242 298.96C354.192 303.662 354.514 302.238 358.06 305.342L402.618 342.936C406.024 345.846 410.196 348.412 412.685 352.192C412.535 355.027 411.879 359.097 408.888 360.345C402.212 363.13 402.39 357.212 402.37 366.309L402.318 390.507C402.3 408.264 403.137 409.177 386.283 409.21L309.922 409.244L301.909 409.283C295.528 409.288 293.942 406.447 294.162 400.079L293.729 362.459C286.321 362.898 280.241 355.839 286.207 349.974C289.084 347.147 293.259 344.917 296.562 342.521C302.343 338.329 308.223 333.544 313.34 328.587C310.945 327.685 308.343 327.677 305.815 327.6L231.644 327.555C213.347 327.535 217.996 320.434 217.984 304.849L217.988 249.16C217.943 243.585 216.243 236.543 221.516 232.83L221.889 232.574C225.432 230.091 239.281 231.557 243.971 231.554L283.747 231.555L283.743 220.454C283.752 215.138 283.954 213.544 289.38 211.64Z"/>
	<path fill="#3EBBFF" transform="scale(1.6 1.6)" d="M348.126 318.281C352.728 317.512 376 341.46 382.563 345.956L351.743 346.358L316.447 346.351C319.937 344.017 323.255 340.201 326.389 337.313C333.487 330.775 340.546 324.262 348.126 318.281Z"/>
	<path fill="#FEEC40" transform="scale(1.6 1.6)" d="M308.984 362.189L339.365 362.031L339.357 394.405L320.096 394.383C316.439 394.377 312.61 394.601 308.99 394.123L308.984 362.189Z"/>
	<path fill="white" transform="scale(1.6 1.6)" d="M298.838 227.344L308.377 227.499C308.723 227.537 310.447 227.635 310.663 227.801C311.254 228.255 309.85 241.739 312.443 244.659C315.21 247.775 334.097 246.065 339.442 246.635L339.35 282.158C339.342 288.677 338.813 295.773 339.655 302.214L339.731 302.762C335.673 308.639 332.803 312.498 325.856 312.339L273.594 312.218L233.077 312.2C232.58 311.277 232.887 309.053 232.891 307.978L233.053 246.347L273.15 246.35C276.588 246.355 295.958 248.053 296.882 244.368C298.215 239.047 296.997 233.034 297.776 227.571L298.838 227.344Z"/>
	<path fill="#005AC7" transform="scale(1.6 1.6)" d="M256.81 258.875C274.68 257.992 270.903 275.109 258.485 275.294C242.407 273.247 241.126 260.647 256.81 258.875Z"/>
	<path fill="#005AC7" transform="scale(1.6 1.6)" d="M256.627 284.098L257.475 284.004C271.066 283.223 273.939 300.866 257.099 301.277C242.085 300.533 238.166 288.87 256.627 284.098Z"/>
	<path fill="#005AC7" transform="scale(1.6 1.6)" d="M291.792 259.143L311.283 259.087C313.871 259.082 316.891 258.786 319.427 259.157C324.321 259.873 331.418 272.556 315.309 273.735L296.578 273.71C293.03 273.678 287.964 274.242 284.763 272.739L284.375 272.548C280.93 271.074 280.902 267.02 282.109 263.899L283.329 260.391C284.538 258.315 289.744 259.182 291.792 259.143Z"/>
	<path fill="#005AC7" transform="scale(1.6 1.6)" d="M310.665 285.49L318.314 285.444C329.291 285.453 326.162 298.892 319.502 300.167C316.712 300.701 313.563 300.474 310.732 300.483L295.461 300.508C290.377 300.616 286.204 300.441 282.031 297.201C278.575 286.442 285.723 285.521 294.533 285.501L310.665 285.49Z"/>
</svg>
