<?xml version="1.0" encoding="utf-8" ?>
<svg xmlns="http://www.w3.org/2000/svg" xmlns:xlink="http://www.w3.org/1999/xlink" viewBox="0 0 1024 1025">
	<path fill="#FD4E00" transform="scale(1.6 1.60156)" d="M173.348 317.348L492.241 317.37C501.606 317.838 501.961 326.923 501.893 333.594L501.869 361.761C501.857 370.685 502.843 379.008 491.613 381.106C470.903 384.975 477.975 354.295 476.34 341.77L427.422 341.771L332.837 341.817L332.839 360.931C332.841 365.925 333.537 370.978 331.155 375.574C328.046 381.573 318.811 382.936 313.257 379.928C303.755 374.781 308.485 352.396 306.971 341.787L163.54 341.711L163.707 359.684C163.711 363.712 163.952 367.91 163.353 371.904C161.344 385.303 141.04 383.319 139.324 372.7C138.809 369.515 138.884 366.199 138.872 362.982L138.845 349.329C138.821 342.194 138.319 334.667 138.886 327.575C139.714 317.233 148.909 317.38 156.572 317.362L173.348 317.348Z"/>
	<path fill="#005AC7" transform="scale(1.6 1.60156)" d="M154.368 393.302L194.436 393.311C207.195 393.317 225.208 389.251 225.482 407.969L225.56 498.786C225.578 513.035 225.355 518.415 207.043 518.445L156.719 518.468L102.039 518.476C99.4194 518.474 95.4968 518.876 93.1364 517.695L92.8125 517.53C88.1319 515.315 85.6855 511.384 85.4442 506.327L85.2782 403.969C85.3064 403.136 85.3974 402.384 85.7418 401.619L85.9216 401.25C89.268 394.171 94.518 393.357 101.423 393.343L154.368 393.302ZM110.484 418.478L110.566 493.122L200.264 493.162C200.247 486.021 200.728 419.811 200.122 418.54L110.484 418.478Z"/>
	<path fill="#005AC7" transform="scale(1.6 1.60156)" d="M473.796 393.302L539.646 393.289C547.066 393.291 554.672 395.009 555.103 404.535L555.087 501.367C555.086 504.001 555.357 506.981 554.578 509.513L554.415 510C551.056 520.524 536.913 518.441 528.51 518.466L496.797 518.472L433.606 518.531C423.849 518.563 415.703 517.733 415.212 506.112L415.059 415.14C415.069 401.688 415.361 393.356 430.592 393.327L473.796 393.302ZM459.817 418.469L446.647 418.516C444.644 418.525 442.417 418.331 440.442 418.645L440.624 493.361L509.844 493.126L529.883 493.095L529.832 418.645C528.894 418.151 526.829 418.437 525.748 418.438L459.817 418.469Z"/>
	<path fill="#005AC7" transform="scale(1.6 1.60156)" d="M277.529 393.294L368.825 393.305C377.004 393.316 387.143 391.597 390.699 401.36L390.825 401.719C392.568 406.203 391.441 412.443 391.446 417.196L391.448 487.998C391.442 497.014 394.89 516.839 381.368 518.083L363.594 518.467L261.455 518.457C246.144 517.764 249.361 498.66 249.351 488.266L249.355 409.121C249.386 395.95 255.487 393.45 266.922 393.351L277.529 393.294ZM274.462 418.494L274.682 493.138C275.349 493.514 356.37 492.944 366.208 492.856L366.076 418.65L274.462 418.494Z"/>
	<path fill="#005AC7" transform="scale(1.6 1.60156)" d="M313.271 77.0547C367.496 73.9393 417.066 115.316 421.135 170.017C424.416 214.125 396.114 259.229 353.745 273.281C344.788 276.252 335.706 277.648 326.327 278.325C319.852 278.447 313.354 278.597 306.905 277.914C253.425 272.253 212.565 218.416 219.828 165.556C226.15 119.548 266.212 79.5167 313.271 77.0547ZM244.957 185.371C247.113 205.585 256.502 223.076 271.94 236.018C274.732 232.165 276.885 228.063 279.154 223.888L291.186 204.502C287.696 200.32 284.97 195.4 282.881 190.376C282.2 188.738 282.136 186.987 281.079 185.522L244.957 185.371ZM359.363 185.36C357.241 191.689 353.842 197.186 350.35 202.82L368.576 235.822C371.785 233.241 374.724 230.517 377.429 227.405C386.68 215.56 393.84 200.715 394.811 185.48L359.363 185.36ZM316.758 102.319C308.377 102.825 299.958 104.264 292.148 107.45L309.909 138.893C314.819 137.673 319.616 136.736 324.686 137.558L324.977 137.625C326.716 138.046 328.679 139.233 330.376 139.363L347.953 107.5C338.122 103.962 327.239 101.819 316.758 102.319ZM326.891 216.672C323.536 217.163 320.264 217.615 316.875 217.258L312.958 216.864C309.88 220.323 307.604 224.707 305.287 228.704L293.881 248.773C300.217 251.305 307.928 252.776 314.71 253.242C325.249 254.129 337.187 252.942 346.944 248.786L334.964 228.437C333.522 225.897 330.147 216.734 326.891 216.672ZM270.407 120.393C259.118 130.129 249.329 145.231 246.605 160.067L266.446 160.153L284.334 160.503C285.801 157.56 287.589 154.545 288.732 151.471C285.638 145.202 281.455 139.201 277.884 133.17C275.427 129.022 273.295 124.221 270.407 120.393ZM369.7 120.854L351.568 151.802C353.751 154.582 355.667 157.368 357.123 160.604L375.156 160.163L393.134 160.054C392.831 148.693 380.13 130.621 372.499 123.393L369.7 120.854ZM320.113 162.307C300.368 164.254 302.652 190.968 320.197 191.257C339.748 187.759 338.052 163.332 320.113 162.307Z"/>
</svg>
